Music_Gen2ChampionBattle_Ch1: ; ea9ca
	tempo 98
	volume $7, $7
	duty $3
	vibrato $12, $1, $5
	notetype $c, $b, $2
	octave 2
	A# 8
	A# 8
	A# 8
	A# 4
	notetype $c, $b, $7
	B_ 4
Music_Gen2ChampionBattle_branch_ea9e2: ; ea9e2
	callchannel Music_Gen2ChampionBattle_branch_eaaee
	octave 3
	D# 4
	loopchannel 2, Music_Gen2ChampionBattle_branch_ea9e2
	callchannel Music_Gen2ChampionBattle_branch_eaaee
	octave 3
	E_ 4
Music_Gen2ChampionBattle_branch_ea9f0: ; ea9f0
	callchannel Music_Gen2ChampionBattle_branch_eaafc
	loopchannel 3, Music_Gen2ChampionBattle_branch_ea9f0
	callchannel Music_Gen2ChampionBattle_branch_eab06
Music_Gen2ChampionBattle_branch_ea9fa: ; ea9fa
	callchannel Music_Gen2ChampionBattle_branch_eaafc
	loopchannel 7, Music_Gen2ChampionBattle_branch_ea9fa
	callchannel Music_Gen2ChampionBattle_branch_eab06
	notetype $c, $b, $2
	A# 2
	A# 2
	notetype $c, $b, $7
	octave 3
	D# 4
	notetype $c, $b, $2
	octave 2
	A# 2
	A# 2
	notetype $c, $b, $7
	octave 3
	E_ 4
	notetype $c, $b, $2
	octave 2
	A# 2
	A# 2
	notetype $c, $b, $7
	octave 3
	F# 4
	notetype $c, $b, $2
	octave 2
	A# 2
	A# 2
	notetype $c, $b, $7
	octave 3
	G# 4
	notetype $c, $a, $0
	A# 8
	octave 2
	A# 8
	octave 3
	B_ 12
	notetype $c, $b, $2
	A# 1
	B_ 1
	octave 4
	C_ 1
	C# 1
Music_Gen2ChampionBattle_branch_eaa35: ; eaa35
	callchannel Music_Gen2ChampionBattle_branch_eab0f
	E_ 2
	E_ 2
	notetype $c, $b, $7
	F# 4
Music_Gen2ChampionBattle_branch_eaa3d: ; eaa3d
	notetype $c, $b, $2
	E_ 2
	E_ 2
	notetype $c, $b, $7
	G# 4
	loopchannel 2, Music_Gen2ChampionBattle_branch_eaa3d
	notetype $c, $b, $2
	E_ 2
	E_ 2
	notetype $c, $b, $7
	B_ 4
	callchannel Music_Gen2ChampionBattle_branch_eab0f
	E_ 2
	E_ 2
	notetype $c, $b, $7
	F# 4
	notetype $c, $b, $2
	E_ 2
	E_ 2
	notetype $c, $b, $7
	G# 4
	notetype $c, $b, $2
	E_ 2
	E_ 2
	notetype $c, $b, $7
	B_ 4
	notetype $c, $b, $2
	E_ 2
	E_ 2
	notetype $c, $b, $7
	octave 4
	E_ 4
	callchannel Music_Gen2ChampionBattle_branch_eab24
	B_ 4
	G# 4
	callchannel Music_Gen2ChampionBattle_branch_eab24
	octave 4
	D_ 4
	D_ 4
	notetype $c, $a, $0
	octave 3
	A# 8
	octave 2
	A# 8
	octave 3
	F# 8
	octave 2
	F# 8
	notetype $c, $6, $0
	B_ 16
	notetype $c, $7, $0
	B_ 16
	notetype $c, $8, $0
	octave 3
	C# 16
	notetype $c, $a, $0
	D# 16
	notetype $c, $b, $4
	octave 4
	F# 4
	F_ 4
	E_ 4
	D# 4
	D_ 4
	C# 4
	F# 4
	F# 4
	F# 4
	F_ 4
	E_ 4
	D# 4
	F# 2
	G# 2
	D# 2
	E_ 2
	F# 4
	F# 4
	rest 16
	notetype $c, $9, $0
	octave 3
	F# 8
	notetype $c, $b, $4
	E_ 4
	E_ 4
	notetype $c, $9, $0
	D# 16
	C# 16
Music_Gen2ChampionBattle_branch_eaab1: ; eaab1
	notetype $c, $b, $2
	octave 2
	A# 2
	A# 2
	notetype $c, $b, $7
	octave 3
	D# 4
	loopchannel 4, Music_Gen2ChampionBattle_branch_eaab1
Music_Gen2ChampionBattle_branch_eaabe: ; eaabe
	notetype $c, $b, $2
	C_ 2
	C_ 2
	notetype $c, $b, $7
	D# 4
	loopchannel 2, Music_Gen2ChampionBattle_branch_eaabe
	notetype $c, $b, $2
	C_ 2
	C_ 2
	notetype $c, $b, $7
	F# 4
	notetype $c, $b, $2
	C_ 2
	C_ 2
	notetype $c, $b, $7
	G# 4
	callchannel Music_Gen2ChampionBattle_branch_eab31
	octave 3
	D# 2
	D# 2
	notetype $c, $b, $7
	B_ 4
	callchannel Music_Gen2ChampionBattle_branch_eab31
	octave 3
	D# 2
	D# 2
	notetype $c, $b, $7
	octave 4
	D_ 4
	loopchannel 0, Music_Gen2ChampionBattle_branch_eaa35
; eaaee

Music_Gen2ChampionBattle_branch_eaaee: ; eaaee
	notetype $c, $b, $2
	octave 2
	A# 2
	A# 6
	A# 2
	A# 6
	A# 2
	A# 6
	A# 2
	A# 2
	notetype $c, $b, $7
	endchannel
; eaafc

Music_Gen2ChampionBattle_branch_eaafc: ; eaafc
	notetype $c, $b, $2
	octave 2
	A# 2
	A# 2
	notetype $c, $b, $7
	octave 3
	D# 4
	endchannel
; eab06

Music_Gen2ChampionBattle_branch_eab06: ; eab06
	notetype $c, $b, $2
	octave 2
	A# 2
	A# 2
	notetype $c, $b, $7
	B_ 4
	endchannel
; eab0f

Music_Gen2ChampionBattle_branch_eab0f: ; eab0f
	notetype $c, $b, $5
	octave 3
	D# 2
	A# 2
	D# 2
	F# 4
	F_ 2
	E_ 2
	B_ 2
	F# 2
	A# 2
	F_ 2
	A_ 2
	E_ 2
	G# 2
	D# 2
	G_ 2
	notetype $c, $b, $2
	endchannel
; eab24

Music_Gen2ChampionBattle_branch_eab24: ; eab24
	notetype $c, $b, $2
	octave 3
	A# 2
	A# 4
	A# 4
	A# 4
	A# 4
	A# 4
	A# 2
	notetype $c, $b, $7
	endchannel
; eab31

Music_Gen2ChampionBattle_branch_eab31: ; eab31
	notetype $c, $b, $2
	D# 2
	D# 2
	notetype $c, $b, $7
	A# 4
	notetype $c, $b, $2
	D# 2
	D# 2
	notetype $c, $b, $7
	B_ 4
	notetype $c, $b, $2
	D# 2
	D# 2
	notetype $c, $b, $7
	octave 4
	C# 4
	notetype $c, $b, $2
	endchannel
; eab4a

Music_Gen2ChampionBattle_Ch2: ; eab4a
	duty $3
	vibrato $8, $3, $6
	notetype $c, $c, $2
	octave 3
	D# 8
	D# 8
	D# 8
	D# 4
	notetype $c, $c, $7
	D_ 4
	callchannel Music_Gen2ChampionBattle_branch_eac4f
	A# 4
	callchannel Music_Gen2ChampionBattle_branch_eac4f
	B_ 4
	callchannel Music_Gen2ChampionBattle_branch_eac4f
	octave 4
	C# 4
	callchannel Music_Gen2ChampionBattle_branch_eac5c
	D_ 4
	callchannel Music_Gen2ChampionBattle_branch_eac5c
	F_ 4
	callchannel Music_Gen2ChampionBattle_branch_eac5c
	D_ 4
	notetype $c, $c, $2
	D# 2
	D# 2
	notetype $c, $c, $7
	A# 4
	notetype $c, $c, $2
	D# 2
	D# 2
	notetype $c, $c, $7
	B_ 4
	notetype $c, $c, $2
	D# 2
	D# 2
	notetype $c, $c, $7
	octave 4
	C_ 4
	notetype $c, $c, $2
	octave 3
	D# 2
	D# 2
	notetype $c, $c, $7
	octave 4
	C# 4
	D# 8
	octave 3
	D# 8
	octave 4
	E_ 8
	notetype $c, $3, $c
	E_ 8
Music_Gen2ChampionBattle_branch_eab9d: ; eab9d
	notetype $c, $c, $5
	D# 6
	octave 3
	A# 6
	octave 4
	D# 2
	D_ 2
	C# 4
	C_ 4
	octave 3
	B_ 4
	A# 4
	notetype $c, $c, $7
	B_ 8
	octave 4
	E_ 8
	notetype $c, $c, $2
	octave 3
	G# 2
	G# 2
	notetype $c, $c, $7
	B_ 4
	notetype $c, $c, $2
	G# 2
	G# 2
	notetype $c, $c, $7
	octave 4
	C# 4
	notetype $c, $c, $5
	D# 6
	octave 3
	A# 6
	octave 4
	D# 2
	D_ 2
	C# 4
	C_ 4
	octave 3
	B_ 4
	A# 2
	B_ 2
	notetype $c, $c, $7
	octave 4
	E_ 8
	G# 8
	E_ 8
	B_ 8
	callchannel Music_Gen2ChampionBattle_branch_eac79
	E_ 4
	E_ 4
	callchannel Music_Gen2ChampionBattle_branch_eac79
	F# 4
	F# 4
	notetype $c, $c, $7
	D# 8
	octave 3
	D# 8
	octave 4
	C# 8
	octave 3
	C# 8
	notetype $c, $b, $0
	D# 16
	D# 16
	F_ 16
	F# 16
	notetype $c, $c, $4
Music_Gen2ChampionBattle_branch_eabef: ; eabef
	octave 5
	D# 4
	D_ 4
	C# 4
	C_ 4
	D# 2
	D_ 2
	C# 2
	C_ 2
	octave 4
	B_ 4
	B_ 4
	loopchannel 2, Music_Gen2ChampionBattle_branch_eabef
	notetype $c, $b, $0
	octave 3
	D# 16
	B_ 16
	A# 16
	G# 16
	notetype $c, $c, $2
	D# 2
	D# 2
	notetype $c, $c, $7
	A# 4
	notetype $c, $c, $2
	D# 2
	D# 2
	notetype $c, $c, $7
	B_ 4
	notetype $c, $c, $2
	D# 2
	D# 2
	notetype $c, $c, $7
	A# 4
	notetype $c, $c, $2
	D# 2
	D# 2
	notetype $c, $c, $7
	A_ 4
	notetype $c, $c, $2
	D# 2
	D# 2
	notetype $c, $c, $7
	A# 4
	notetype $c, $c, $2
	D# 2
	D# 2
	notetype $c, $c, $7
	B_ 4
	notetype $c, $c, $2
	D# 2
	D# 2
	notetype $c, $c, $7
	octave 4
	C# 4
	notetype $c, $c, $2
	octave 3
	D# 2
	D# 2
	notetype $c, $c, $7
	octave 4
	D_ 4
	notetype $c, $b, $0
	D# 8
	E_ 8
	F# 8
	E_ 8
	D# 8
	E_ 8
	F# 8
	G# 8
	loopchannel 0, Music_Gen2ChampionBattle_branch_eab9d
; eac4f

Music_Gen2ChampionBattle_branch_eac4f: ; eac4f
	notetype $c, $c, $2
	D# 2
	D# 6
	D# 2
	D# 6
	D# 2
	D# 6
	D# 2
	D# 2
	notetype $c, $c, $7
	endchannel
; eac5c

Music_Gen2ChampionBattle_branch_eac5c: ; eac5c
	notetype $c, $c, $2
	octave 3
	D# 2
	D# 2
	notetype $c, $c, $7
	A# 4
	notetype $c, $c, $2
	D# 2
	D# 2
	notetype $c, $c, $7
	B_ 4
	notetype $c, $c, $2
	D# 2
	D# 2
	notetype $c, $c, $7
	A# 4
	notetype $c, $c, $2
	D# 2
	D# 2
	notetype $c, $c, $7
	endchannel
; eac79

Music_Gen2ChampionBattle_branch_eac79: ; eac79
	notetype $c, $c, $1
	D# 2
	D# 4
	D# 4
	D# 4
	D# 4
	D# 4
	D# 2
	notetype $c, $c, $5
	endchannel
; eac85

Music_Gen2ChampionBattle_Ch3: ; eac85
	notetype $c, $1, $4
Music_Gen2ChampionBattle_branch_eac88: ; eac88
	octave 3
	D# 1
	rest 7
	loopchannel 3, Music_Gen2ChampionBattle_branch_eac88
	D# 1
	rest 3
	E_ 4
	callchannel Music_Gen2ChampionBattle_branch_ead61
	callchannel Music_Gen2ChampionBattle_branch_ead61
	callchannel Music_Gen2ChampionBattle_branch_ead61
	callchannel Music_Gen2ChampionBattle_branch_ead6f
	D_ 4
	callchannel Music_Gen2ChampionBattle_branch_ead6f
	A_ 4
	callchannel Music_Gen2ChampionBattle_branch_ead6f
	D_ 4
	D# 1
	rest 1
	D# 1
	rest 1
	A# 4
	D# 1
	rest 1
	D# 1
	rest 1
	A# 4
	D# 1
	rest 1
	D# 1
	rest 1
	B_ 4
	D# 1
	rest 1
	D# 1
	rest 1
	octave 4
	C# 4
	D# 8
	octave 3
	D# 8
	B_ 4
	G_ 2
	B_ 2
	F# 2
	A# 2
	F_ 2
	A_ 2
Music_Gen2ChampionBattle_branch_eacc6: ; eacc6
	D# 2
	A# 2
	loopchannel 8, Music_Gen2ChampionBattle_branch_eacc6
Music_Gen2ChampionBattle_branch_eaccc: ; eaccc
	E_ 2
	B_ 2
	loopchannel 5, Music_Gen2ChampionBattle_branch_eaccc
	E_ 2
	octave 4
	C_ 2
	octave 3
	A_ 2
	B_ 2
	G_ 2
	A_ 2
Music_Gen2ChampionBattle_branch_eacda: ; eacda
	D# 2
	A# 2
	loopchannel 8, Music_Gen2ChampionBattle_branch_eacda
Music_Gen2ChampionBattle_branch_eace0: ; eace0
	E_ 2
	B_ 2
	loopchannel 8, Music_Gen2ChampionBattle_branch_eace0
	callchannel Music_Gen2ChampionBattle_branch_ead83
	octave 3
	D# 2
	E_ 2
	D# 2
	E_ 2
	D# 2
	octave 4
	D_ 2
	C# 2
	C_ 2
	callchannel Music_Gen2ChampionBattle_branch_ead83
	octave 3
	D# 2
	A# 2
	D# 2
	A# 2
	D# 2
	octave 4
	D_ 2
	C# 2
	C_ 2
	octave 3
	A# 8
	D# 8
	B_ 8
	D# 8
Music_Gen2ChampionBattle_branch_ead05: ; ead05
	D# 2
	F# 2
	loopchannel 16, Music_Gen2ChampionBattle_branch_ead05
	callchannel Music_Gen2ChampionBattle_branch_ead8e
	octave 3
	E_ 2
	B_ 2
	octave 4
	D# 2
	E_ 2
	F# 2
	octave 3
	B_ 2
	octave 4
	D# 2
	E_ 2
	callchannel Music_Gen2ChampionBattle_branch_ead8e
Music_Gen2ChampionBattle_branch_ead1d: ; ead1d
	octave 3
	E_ 2
	B_ 2
	loopchannel 4, Music_Gen2ChampionBattle_branch_ead1d
Music_Gen2ChampionBattle_branch_ead24: ; ead24
	D# 2
	A# 2
	loopchannel 5, Music_Gen2ChampionBattle_branch_ead24
	B_ 2
	octave 4
	D# 2
	octave 3
	D# 2
	rest 2
	D# 2
	rest 2
Music_Gen2ChampionBattle_branch_ead32: ; ead32
	E_ 2
	B_ 2
	loopchannel 5, Music_Gen2ChampionBattle_branch_ead32
	octave 4
	C# 2
	E_ 2
	octave 3
	E_ 2
	rest 2
	E_ 2
	rest 2
Music_Gen2ChampionBattle_branch_ead40: ; ead40
	D# 2
	G# 2
	loopchannel 8, Music_Gen2ChampionBattle_branch_ead40
Music_Gen2ChampionBattle_branch_ead46: ; ead46
	D# 2
	A# 2
	loopchannel 7, Music_Gen2ChampionBattle_branch_ead46
	B_ 2
	A# 2
Music_Gen2ChampionBattle_branch_ead4e: ; ead4e
	octave 3
	D# 2
	A# 2
	octave 4
	D_ 2
	D# 2
	loopchannel 7, Music_Gen2ChampionBattle_branch_ead4e
	C# 2
	octave 3
	B_ 2
	A# 2
	G# 2
	loopchannel 0, Music_Gen2ChampionBattle_branch_eacc6
; ead61

Music_Gen2ChampionBattle_branch_ead61: ; ead61
	D# 1
	rest 1
	D# 1
	rest 5
	loopchannel 3, Music_Gen2ChampionBattle_branch_ead61
	D# 1
	rest 1
	D# 1
	rest 1
	B_ 4
	endchannel
; ead6f

Music_Gen2ChampionBattle_branch_ead6f: ; ead6f
	D# 1
	rest 1
	D# 1
	rest 1
	A# 4
	D# 1
	rest 1
	D# 1
	rest 1
	B_ 4
	D# 1
	rest 1
	D# 1
	rest 1
	A# 4
	D# 1
	rest 1
	D# 1
	rest 1
	endchannel
; ead83

Music_Gen2ChampionBattle_branch_ead83: ; ead83
	octave 3
	D# 2
	F# 2
	D# 2
	F# 2
	D# 2
	octave 4
	D_ 2
	C# 2
	C_ 2
	endchannel
; ead8e

Music_Gen2ChampionBattle_branch_ead8e: ; ead8e
	octave 3
	E_ 2
	B_ 2
	E_ 2
	B_ 2
	E_ 2
	B_ 2
	octave 4
	D# 2
	E_ 2
	endchannel
; ead99


